<svg xmlns="http://www.w3.org/2000/svg" width="493.95" height="45.15" viewBox="0 0 493.95 45.15">
  <path id="パス_106" data-name="パス 106" d="M14.3-25.35q.05-2.55.15-5.35a7.692,7.692,0,0,0-.5-2.4,11.1,11.1,0,0,1-.5-1.9q0-.8.6-.8a4.831,4.831,0,0,1,2.55.9,4,4,0,0,1,1.35,3.2,14.469,14.469,0,0,1-.3,2.7q-.2,1.55-.35,2.95,3.6.15,3.6,2.55a1.39,1.39,0,0,1-1.6,1.4,19.331,19.331,0,0,0-2.4.15q-.3,3.5-.3,5.35,1.7-2.4,3.7-5.35v.2a31.857,31.857,0,0,1-3.95,9.3L15.8-2.2A13.378,13.378,0,0,1,15.45.85q-.35,1.4-1,1.45Q13.55,2.25,13,1a6.385,6.385,0,0,1-.5-2.4A29.187,29.187,0,0,1,13-6.35q.1-.6.2-1.4a12.682,12.682,0,0,1-2.05,2A4.9,4.9,0,0,1,8.2-4.15q-1.8,0-1.95-2.55,0-2.3,2.2-5.8,2.6-3.95,5.55-8.85a21.5,21.5,0,0,0-2.75,1.1A8.673,8.673,0,0,1,7.8-19.2a4.044,4.044,0,0,1-2.15-.55q-.85-.4-1-.8,0-.35.4-.35,1.85,0,5.45-2.45A21.208,21.208,0,0,1,14.3-25.35Zm-.4,9.85q-1.7,3.05-3.5,6.7a46.914,46.914,0,0,0,3.3-3.9Q13.8-14.05,13.9-15.5ZM25.2-31.1q.55,0,1.9,1.75a10.245,10.245,0,0,1,1.5,3.5,13.756,13.756,0,0,0,2.45-1.3q.4-.25.75-.45v-5.25a7.723,7.723,0,0,0-1.55-4.7q0-.6,1.35-.6a4.1,4.1,0,0,1,2.6.95,3.176,3.176,0,0,1,1.15,2.4,4.492,4.492,0,0,1-.3,1.45,5.813,5.813,0,0,0-.3,1.85v2.7a4.74,4.74,0,0,1,1.15-.15q3.75.05,3.75,2.55-.1,1.35-1.6,1.35a22.331,22.331,0,0,0-3.35.25v3.7q1.6-.3,2.85-.65a7.594,7.594,0,0,1,2.3-.4,5.688,5.688,0,0,1,2.65.7q1.8,1.1,1.8,2,0,.4-1.35.4-.75,0-2-.05-1.8-.1-3.5-.15a17.807,17.807,0,0,0-2.75.3q0,2.3-.05,4.85a25.125,25.125,0,0,0,8.4,6.6A25.167,25.167,0,0,1,48-4.7q1,.8,1,.95,0,.95-2.35.95A12.158,12.158,0,0,1,40-4.85,23.6,23.6,0,0,1,34.65-10q-.05,4.2-.1,9a8.118,8.118,0,0,1-.65,3.35q-.4.75-.9.75-1.35,0-5.3-5.1a.177.177,0,0,1,.2-.2,9.551,9.551,0,0,0,2.75.6q.95,0,.85-1,.1-5.3.2-11.2a66.145,66.145,0,0,1-5.25,6.25q-2.9,2.8-5.4,2.8-.95,0-.95-.4a27.12,27.12,0,0,0,5.5-5.45,60.879,60.879,0,0,0,5.05-7,23.87,23.87,0,0,0-2.75,1.4,5.461,5.461,0,0,1-2.9.9,7.612,7.612,0,0,1-2.9-.55q-.95-.35-1.05-.6,0-.2.4-.2,1.8-.1,7.7-2.7,1.45-.65,2.6-1.05.05-1.9.05-3.75a8.921,8.921,0,0,1-1.95.25,4.55,4.55,0,0,1-1.2-.15,4.978,4.978,0,0,1-.85,2.65,1.994,1.994,0,0,1-1.65.85Q24.5-20.7,24.4-23.1a22.291,22.291,0,0,1,.3-3.3,39.9,39.9,0,0,0,.35-4Q25.1-31.1,25.2-31.1Zm56.4-.4q3.35.05,3.35,2.35Q84.9-28,83.6-28a40.141,40.141,0,0,0-6.4.5v.1A87.828,87.828,0,0,0,88.4-4.95Q90.35-2,91.2-2q.3,0,.65-.7a21.511,21.511,0,0,0,.7-4.4q.15-.35.2-.35.4,0,.9.9A12.662,12.662,0,0,1,94.9-.9a9.764,9.764,0,0,1-.55,3.75,1.736,1.736,0,0,1-1.6,1.2q-1.45,0-4-2.35-3.45-3.5-7.5-12.05A161.8,161.8,0,0,1,74.75-27a40.279,40.279,0,0,0-6.45,2.05,19.839,19.839,0,0,1-6.6,1.65,3.873,3.873,0,0,1-2-.5q-.8-.3-.95-.65,0-.45.7-.45,3.4,0,10-3.15,2.35-1.05,4.4-1.8-1-3.15-2-6.55a2.4,2.4,0,0,0-1.45-1.7q-.9-.2-.9-.45a1.224,1.224,0,0,1,1.2-.75,6.386,6.386,0,0,1,2.85.75,2.546,2.546,0,0,1,1.8,2.35,23.636,23.636,0,0,0,.95,5.6A20.515,20.515,0,0,1,81.6-31.5ZM69.3-20.95q2.55,0,2.55,1.75,0,2.25-2.8,3.35l-.25,5.7q1.6-.9,3.45-2a.177.177,0,0,1,.2.2q0,1.05-1.8,2.95a50.742,50.742,0,0,1-9,7.15q-3,2-3.85,2Q56.05.15,55.85-3q0-1,.75-1.15a6.979,6.979,0,0,0,2.7-.65q1.75-.85,6.1-3.35l-.15-6.6a9.061,9.061,0,0,1-1.8.25,6.009,6.009,0,0,1-2.8-.7q-1.2-.85-1.3-1.25,0-.65.95-.8a14.56,14.56,0,0,0,4.2-2.15A7.472,7.472,0,0,1,69.3-20.95Zm17-17a4.769,4.769,0,0,1,3.5,1.45,5.38,5.38,0,0,1,1.5,3.35q0,2.45-1.3,2.45a5.965,5.965,0,0,1-2.5-.9q-1.5-.65-1.6-1.05,0-.15.55-.4a.973.973,0,0,0,.35-.85,5.774,5.774,0,0,0-.6-1.85,3.438,3.438,0,0,1-.45-1.6A.539.539,0,0,1,86.3-37.95Zm37.5-.95a3.362,3.362,0,0,1,2.1.55,2.538,2.538,0,0,1,.85,2.15,12.154,12.154,0,0,1-1.3,4.1q10.85,9.9,15.2,11.7a34.767,34.767,0,0,1,6.75,3.05q1.8,1,1.8,2.05,0,1.4-2.75,1.4A13.266,13.266,0,0,1,140-15.4a17.711,17.711,0,0,1-7.5-5.95q-4.3-5.4-7.85-9.1A59.556,59.556,0,0,1,114.25-16q-5.25,5.25-9.5,6.85a11.569,11.569,0,0,1-2.8.9.177.177,0,0,1-.2-.2,67.851,67.851,0,0,0,9.35-7.8,58.112,58.112,0,0,0,9.4-13.35q2.55-4.5,2.55-6.2a1.764,1.764,0,0,0-.75-1.25q-.65-.45-.65-.7,0-.45.7-.85A3.025,3.025,0,0,1,123.8-38.9Zm2.75,18.35a9.431,9.431,0,0,1,2.8.45,1.605,1.605,0,0,1,1.1,1.5q0,1.7-1.95,1.75a10.117,10.117,0,0,0-3.1.7q-2.9,1.25-5.3,2.05v-.2a19.141,19.141,0,0,1,2.05-1.65,6.839,6.839,0,0,1-1.8-.65,2.708,2.708,0,0,1-1.45-1.8.354.354,0,0,1,.4-.4,11.686,11.686,0,0,0,1.95.2,6.236,6.236,0,0,0,2.7-1.05A5.274,5.274,0,0,1,126.55-20.55Zm6.65,6.85q3.3.05,3.3,2.3-.05,1.2-1.35,1.2A35.33,35.33,0,0,0,124.4-8.55v.1q0,1.45-5.5,6.85,0,.4.2.4l9.45-4.1a20.8,20.8,0,0,0-1.2-1.8.309.309,0,0,1,.35-.35q2.4.05,5.65,2.75Q136.7-1.95,136.7.55a2.231,2.231,0,0,1-2.35,2.35q-1.85,0-3.15-3-.75-1.65-1.4-2.95Q123.9-.5,119.5,1.5a4.2,4.2,0,0,1-2.15.8,1.876,1.876,0,0,1-1.6-1.05A4.486,4.486,0,0,1,115-.45q0-1.35,1.9-2.25a5.276,5.276,0,0,0,2.25-1.9q1.25-1.6,2-2.75-.75.3-1.45.65a17.012,17.012,0,0,1-6.65,1.95,4.216,4.216,0,0,1-2-.45q-.8-.35-.9-.7,0-.45.7-.45,3.4,0,10.1-3.55Q128.15-13.55,133.2-13.7Zm28.7-23.45a18.669,18.669,0,0,1,6.65,1.1q3.1,1.15,3.1,2.8,0,1.55-1.35,1.55a17.807,17.807,0,0,0-4.5.35,2.447,2.447,0,0,1-1,.25v-.4a5.523,5.523,0,0,0,.8-2.35q0-.6-2.8-1.75-1.5-.65-1.5-.8Q161.3-37.15,161.9-37.15Zm2.75,10.75q2.5.05,2.5,1.95a8.715,8.715,0,0,1-1.6,3.95,4.943,4.943,0,0,1,.05.7q0,2.4-.05,4.45,1.4-1.35,3-2.85.35,0,.35.4,0,1.9-3.15,5.15a3.752,3.752,0,0,1-.35.4q-.1,3.4-.2,13.55-.2,2.5-2.15,2.75-1.65-.3-1.75-3.1a7.448,7.448,0,0,1,.3-2.15q.1-1.2.3-6.7-1.4,1.75-2.45,3.1A3.4,3.4,0,0,1,156.8-3q-1.2,0-1.35-2.5,0-4.95,6.1-15.75-3.4,1.85-5.15,1.85-1.95,0-1.95-.75A37.894,37.894,0,0,0,161-24.5,5.639,5.639,0,0,1,164.65-26.4ZM162.1-12.3q.05-1.35.1-2.55a37.362,37.362,0,0,0-1.4,3.65Zm27.35-11.4q1.95,0,1.95,1.4,0,2.25-4,3.4-1.1.25-2,.45-.35,4.45-.9,10.15,4.05-.45,5.05-.65a7.2,7.2,0,0,1,1.65-.2,8.045,8.045,0,0,1,4.3,1.2q2.35,1.5,2.35,3.2a1.393,1.393,0,0,1-1.55,1.6,3.6,3.6,0,0,1-1.8-.8,15.311,15.311,0,0,0-4-1.25,26.668,26.668,0,0,0-5.85-.65,16.426,16.426,0,0,0-4.85.65,11.669,11.669,0,0,0-3.35,1.3,3.8,3.8,0,0,1-2.25.75,6.059,6.059,0,0,1-2.8-.55q-1.3-.55-1.3-1.45,0-.35.2-.35a14.576,14.576,0,0,0,4.8-1A24.642,24.642,0,0,1,181.6-8v-9.75a15.418,15.418,0,0,1-1.55.1,4.3,4.3,0,0,1-2.1-.55q-.95-.65-1-1,0-.65,1.2-.75a17.163,17.163,0,0,0,3.45-1.3v-12a2.186,2.186,0,0,0-.75-1.95,2.427,2.427,0,0,1-.6-.8q0-1.1,1.55-1.15A5.8,5.8,0,0,1,185-36.1a3.225,3.225,0,0,1,1.5,2.85q0,1.95-.7,10.05A12.551,12.551,0,0,1,189.45-23.7Zm51.75-4.15q0,.55-1.25,1.2-.95.55-1.85,1.1a69.662,69.662,0,0,1-10.25,6.15A49.569,49.569,0,0,1,221.7-7.9q-4.9,6.7-10.1,7.3,4.55-3,8.4-11.25,3.25-6.85,3.25-9.45,0,.05-.3-2.7a17.911,17.911,0,0,1,3.3.2q2.05.45,2.15,2.05a31.763,31.763,0,0,0,6.5-7.55,24.357,24.357,0,0,0-7.7,1.5l-7.35,2.65a23.777,23.777,0,0,1-5.9,1.65,11.114,11.114,0,0,1-3.95-.85q-2.65-1-2.65-2.35a1.8,1.8,0,0,1,.55-1.4,7.293,7.293,0,0,0,2.9.85q.75,0,9.95-2.4A85.669,85.669,0,0,1,233-31.85a5.732,5.732,0,0,1,2.35-1.1q1.35,0,3.55,1.95Q241.2-29.2,241.2-27.85Zm32.9-.95a1.612,1.612,0,0,1-.8,1.2,2.114,2.114,0,0,1-1.35.6,18.794,18.794,0,0,1-5.25-.8,12.864,12.864,0,0,1-4.65-2.45,9.467,9.467,0,0,1,6.05-2.15,8.8,8.8,0,0,1,3.7.8Q274.1-30.5,274.1-28.8Zm15.2,2.85A33.32,33.32,0,0,1,275.15-6.2q-6.4,4.4-8.45,4.4-1.45,0-2.2-1.8a8.022,8.022,0,0,1-.55-3.05,4.4,4.4,0,0,1,.75-2.7q1.8,2.05,2.75,2.05.7,0,4.1-2.05a64.118,64.118,0,0,0,9.8-7.4A53.692,53.692,0,0,0,289.3-25.95ZM270.15-20.7a2.2,2.2,0,0,1-1,1.9,3.442,3.442,0,0,1-2.2.8,6.245,6.245,0,0,1-3.65-1.45,11.623,11.623,0,0,1-2.7-3A9.009,9.009,0,0,1,265.75-24Q270.15-24,270.15-20.7Zm55.7-9.4q0,3-4.55,6.7-4.5,3.65-7.65,3.65a2.117,2.117,0,0,1-1.9-.7,40.84,40.84,0,0,0,5.65-5.2q3.7-4.05,3.7-6.15a3.37,3.37,0,0,0-.6-2.15,3,3,0,0,1,1.6-.35,3.359,3.359,0,0,1,2.65,1.3A4.379,4.379,0,0,1,325.85-30.1Zm12.4-.25q0,2.3-4.5,10.7Q323.75-.7,314.3-.4q6.4-4.4,13.15-17.15-5.5-2.3-5.5-5.3,0-.25,1.2-.25,1.7,0,6.3,1.8a55.128,55.128,0,0,0,3.75-8.75,28.1,28.1,0,0,1-5.95.75,1.3,1.3,0,0,1-1.3-.95,14.714,14.714,0,0,1,9-2.85,3.656,3.656,0,0,1,2.25.75A2.341,2.341,0,0,1,338.25-30.35Zm60.3.5q0,1.05-1.25,1.05-2.7,0-5.8-4.65Q398.55-33.05,398.55-29.85Zm-4.6,3.8q0,1.15-1.35,1.15-1.55,0-3.5-2.4a12.074,12.074,0,0,1-2.3-4,14.124,14.124,0,0,1,4.65,1.45A4.312,4.312,0,0,1,393.95-26.05ZM393-12.55q0,2.15-1.55,2.15a4.049,4.049,0,0,1-3.4-1.55,9.835,9.835,0,0,1-1.45-3.6q-1.9-7.6-4.7-10a16.344,16.344,0,0,1,7.5,4.95Q393-16.7,393-12.55ZM371.5-22q0,4.7-5.6,9.5-5.55,4.85-8.95,5.45a56.276,56.276,0,0,0,6.1-7.7q4.3-6.2,4.3-8.05a4.923,4.923,0,0,0-.8-2.2,7.772,7.772,0,0,1-.75-1.6q0-.9,1.05-.9a4,4,0,0,1,3.1,1.9A5.825,5.825,0,0,1,371.5-22Zm63.25-13.8a4.575,4.575,0,0,1,3.05,1.1,3.161,3.161,0,0,1,1.25,2.2,9.113,9.113,0,0,1-.05,1q1.25-.15,2.4-.2,2.9.05,2.9,2.15-.05,1-1.15,1-3.2,0-6.25.25-.9,1.1-2.35,3.25a1.2,1.2,0,0,1,.4.95q0,.9-1.35,1.4-1.5.35-3.05.6,0,.75-.05,1.45a8.985,8.985,0,0,1,2.7-.5,1.547,1.547,0,0,1,1.75,1.75q-.05.65-4.65,4.35v.2q-.05.65-.1,1.25a32.589,32.589,0,0,1,5.7-1.1,5.1,5.1,0,0,1,2.4.55,1.54,1.54,0,0,1,.55,1.4q-.05,1.1-1,1.2a12,12,0,0,0-2.7-.4,19.306,19.306,0,0,0-5.2.9,31.317,31.317,0,0,1-1,5.15q-.45,1.35-.85,1.35t-.5-1.35q-.1-.75-.15-4.35a25.1,25.1,0,0,1-5.2,1.4,1.4,1.4,0,0,1-1.55-1.55q0-.95,5.5-5.35a10.827,10.827,0,0,1-2.4.25,2.2,2.2,0,0,1-1.45-.8,1.733,1.733,0,0,1-.5-.95,44.669,44.669,0,0,0,5.5-2.05v-2.25l-.7.1a33.046,33.046,0,0,1-3.6.3q-1.4,0-1.4-.8,0-.35,1.15-.65l4.55-1.4v-2.65a30.146,30.146,0,0,1-5.9.8,3.665,3.665,0,0,1-1.75-.4q-.7-.25-.8-.55,0-.3.7-.3a27.92,27.92,0,0,0,7.75-1.55v-3.1q-.4.05-.7.1a10.233,10.233,0,0,1-1.1.15q-.7,0-.75-.4,0-.3.95-.85a11.891,11.891,0,0,1,1.6-.85v-2.8a21.309,21.309,0,0,0-.6-3.9q0-.4.95-.4a2.571,2.571,0,0,1,2.35,1.2,5.559,5.559,0,0,1,.8,3.1v1.45A14.472,14.472,0,0,1,434.75-35.8Zm-3.95,3.6q0,1.2-.05,2.45,1.75-.5,3.35-.9l.65-1.25q0-.6-.4-.6A30.58,30.58,0,0,0,430.8-32.2Zm-.1,4.8q0,1.2-.05,2.5.35-.1.6-.15l1.35-2.7Q431.65-27.6,430.7-27.4Zm-15.5-1.75q3.45,0,3.55,4.3,0,.6-1.3,1.8-3.2,3.65-3.2,4.65,0,.9.75.9,3.45.1,3.55,4.95a10.654,10.654,0,0,1-1.2,5q2.5.95,4.9,2A69.688,69.688,0,0,0,446.1-.05q2.7.15,2.7,1.35,0,1.3-2.05,2.1a20.718,20.718,0,0,1-7.1,1.05,15,15,0,0,1-9.2-2.75q-3.6-2.4-14.6-7.2a13.541,13.541,0,0,1-6.15,3.65,25.733,25.733,0,0,1-7.2,1q-.2,0-.2-.15,8.5-2.7,11-5.65-3.15-1.3-6.85-2.85-2.95-1.2-2.95-2.25,0-.4.2-.4,5.6,1.55,11,3.55a6.4,6.4,0,0,0,.9-3.15,1.218,1.218,0,0,0-.75-1.1,5.477,5.477,0,0,1-3.35-5.35,5.951,5.951,0,0,1,2.55-4.7,23.79,23.79,0,0,1-4.9.6q-2.35,0-2.35-2.15,0-.5.85-.6a13.33,13.33,0,0,0,6.1-3.55A2.189,2.189,0,0,1,415.2-29.15Zm49.45-7.05a5.573,5.573,0,0,1,3.7,1.4,4.041,4.041,0,0,1,1.75,3.3q0,1.15-1,1.15a13.12,13.12,0,0,0-3.85.35,1.692,1.692,0,0,1-.8.25v-.2a3.541,3.541,0,0,0,.95-1.95,7.154,7.154,0,0,0-.75-2.55,4.991,4.991,0,0,1-.4-1.15Q464.25-36.2,464.65-36.2Zm4.25,8.4q3.35.05,3.35,2.35-.05,1.2-1.35,1.2a29.816,29.816,0,0,0-11.65,2.35,14.445,14.445,0,0,1-5,1.35,4.048,4.048,0,0,1-2-.5q-.8-.3-.9-.7,0-.35.55-.35,2.6,0,7.7-2.75Q465.1-27.65,468.9-27.8Zm-1.55,6.45a2.517,2.517,0,0,1,1.45.35,1.8,1.8,0,0,1,.7,1.4q0,.85-1.15,1.35a11.921,11.921,0,0,1-3.45.6,17.307,17.307,0,0,1-5.2-.6q-1.15-.35-1.15-.75,0-.2.4-.2a8.845,8.845,0,0,0,4.85-1A6.244,6.244,0,0,1,467.35-21.35Zm-1.15,5.7q2.7,0,2.7,1.95,0,.95-1.15.95a11.015,11.015,0,0,0-4.9,1.15,5.147,5.147,0,0,1-2.15.6,3.167,3.167,0,0,1-1.6-.4q-.65-.25-.7-.55,0-.25.2-.25a6.872,6.872,0,0,0,3.45-1.65A8.093,8.093,0,0,1,466.2-15.65Zm-8,9.75q.2,0,.6.45A17.477,17.477,0,0,0,462-1.4a3.915,3.915,0,0,1,1.45,2.7q-.05,1.7-.8,1.8a4.178,4.178,0,0,1-3.1-1.5,9.665,9.665,0,0,1-1.75-5.75Q457.8-5.9,458.2-5.9Zm8.2-4.3a4.682,4.682,0,0,1,3.05,1.45q.8-1.85,1.6-4a.177.177,0,0,1,.2.2,73.91,73.91,0,0,1-3.1,11.6q-1,2.25-1.55,2.25a1.223,1.223,0,0,1-.95-.65A3.734,3.734,0,0,1,465.2-1a27.917,27.917,0,0,1,.5-4.6,17.969,17.969,0,0,0,.3-2.25q0-.4-.6-.4a3.541,3.541,0,0,0-2.4,1.4q-1.65,1.9-2.1,1.9-.4,0-.4-.2Q463.7-10.2,466.4-10.2Zm9.75-18.35q.35,0,1.1.85a3.719,3.719,0,0,1,.65,2.05,10.79,10.79,0,0,1-1.05,4.5q-.5,1.2-1.1,1.2-.5,0-1.15-.85a1.574,1.574,0,0,1-.6-1.15,2.706,2.706,0,0,1,.35-1,21.813,21.813,0,0,0,1.65-5.2Q476-28.55,476.15-28.55Zm6.85-9.8a4.926,4.926,0,0,1,2.25.7A3.159,3.159,0,0,1,486.7-35q0,1.25-.6,6.65,0,.55.8.55a14.21,14.21,0,0,1,4.7-1.55q.65,0,1.45,1a3.032,3.032,0,0,1,.7,1.75.709.709,0,0,1-.6.75,45.478,45.478,0,0,1-8.2,1A2.021,2.021,0,0,1,482.8-27a24.965,24.965,0,0,1,.3-3.35q.1-1.8.1-3.3,0-1.55-1.4-1.55a5.771,5.771,0,0,0-2.15.95q-1.15,0-1.15-.55a1.3,1.3,0,0,1,.6-1.05Q482-38.35,483-38.35Zm1.95,16.05q2.75,0,2.75,3.1a12.476,12.476,0,0,1-.95,3.5A26.518,26.518,0,0,1,483-8.85q4.95,2.6,10.65,5.05a20.886,20.886,0,0,1,3.75,2.05,2.57,2.57,0,0,1,1.2,1.9q-.05,1-1.55,1a15.2,15.2,0,0,1-4.85-.9,29.788,29.788,0,0,1-7.45-4.35q-1.95-1.45-3.65-2.8a1.987,1.987,0,0,0-.3.25,12.822,12.822,0,0,1-7,2.1q-1.5-.05-1.55-.2A11.576,11.576,0,0,0,478-7.9q.5-.45.95-.9a49.346,49.346,0,0,1-4.55-4.75q0-.15.2-.15,2.65,1.7,5.6,3.35a17.747,17.747,0,0,0,1.9-3.3,11.339,11.339,0,0,0,1.3-4.15.177.177,0,0,0-.2-.2,20.966,20.966,0,0,1-7.45,1.95q-1.35,0-1.35-.8.1-.35,1-.65,6.7-3.15,7.7-4A2.653,2.653,0,0,1,484.95-22.3Z" transform="translate(-4.65 40.7)" fill="#fff"/>
</svg>
